# xmcd
#
# Track frame offsets:
#	150
#	18861
#	36147
#	54474
#	70820
#	91406
#	107327
#	127380
#	154223
#	174652
#	195968
#	218740
#
# Disc length: 3167 seconds
#
# Revision: 0
# Processed by: cddbd v1.5.1PL2 Copyright (c) Steve Scherf et al.
# Submitted via: dBpowerAMP V4.0
#
DISCID=9d0c5d0c
DTITLE=Ilse DeLange - Livin' On Love
DYEAR=2000
DGENRE=Country
TTITLE0=Good Thing
TTITLE1=Naked Heart
TTITLE2=Ride The Wind
TTITLE3=Breathin'
TTITLE4=I Still Cry
TTITLE5=Beyond Gravity
TTITLE6=Livin' On Love
TTITLE7=Peaceful In Mine
TTITLE8=When You Put It Like That
TTITLE9=Always Overcome
TTITLE10=All The Answers [live]
TTITLE11=Livin' On Love [acoustic]
EXTD=
EXTT0=
EXTT1=
EXTT2=
EXTT3=
EXTT4=
EXTT5=
EXTT6=
EXTT7=
EXTT8=
EXTT9=
EXTT10=
EXTT11=
PLAYORDER=
